SplineFontDB: 3.0
FontName: Elypian-Display
FullName: Elypian Display
FamilyName: Elypian
Weight: Regular
Copyright: Copyright (c) 2019-2019, Elypia CIC and Contributors (https://elypia.org/),\nCopyright (c) 2019-2019, Arsene Laeuffer (SevDev),\nwith Reserved Font Name Elypian.\n\nThis Font Software is licensed under the SIL Open Font License, Version 1.1.\nThis license is copied below, and is also available with a FAQ at:\nhttp://scripts.sil.org/OFL
UComments: "2019-10-26: Created with FontForge (http://fontforge.org)"
Version: 1.0.1
ItalicAngle: 0
UnderlinePosition: -100
UnderlineWidth: 50
Ascent: 750
Descent: 250
InvalidEm: 0
LayerCount: 2
Layer: 0 0 "Back" 1
Layer: 1 0 "Fore" 0
XUID: [1021 353 -130540722 15807660]
FSType: 0
OS2Version: 0
OS2_WeightWidthSlopeOnly: 0
OS2_UseTypoMetrics: 1
CreationTime: 1572048009
ModificationTime: 1575857776
PfmFamily: 17
TTFWeight: 400
TTFWidth: 5
LineGap: 90
VLineGap: 0
OS2TypoAscent: 0
OS2TypoAOffset: 1
OS2TypoDescent: 0
OS2TypoDOffset: 1
OS2TypoLinegap: 90
OS2WinAscent: 0
OS2WinAOffset: 1
OS2WinDescent: 0
OS2WinDOffset: 1
HheadAscent: 0
HheadAOffset: 1
HheadDescent: 0
HheadDOffset: 1
OS2Vendor: 'PfEd'
MarkAttachClasses: 1
DEI: 91125

StartChar: E
Encoding: 69 69 0
Width: 681
VWidth: 0
Flags: HW
HStem: 0 83.333<92 508.667> 333.333 83.334<92 342> 666.667 83.333<175.333 508.667>
VStem: 92 83.333<583.333 666.667>
CounterMasks: 1 e0
LayerCount: 2
Fore
SplineSet
92 666.666992188 m 1
 175.333007812 750 l 1
 592 750 l 1
 508.666992188 666.666992188 l 1
 175.333007812 666.666992188 l 1
 175.333007812 583.333007812 l 1
 92 500 l 1
 92 666.666992188 l 1
92 0 m 1
 92 83.3330078125 l 1
 508.666992188 83.3330078125 l 1
 592 0 l 1
 92 0 l 1
92 416.666992188 m 1
 425.333007812 416.666992188 l 1
 342 333.333007812 l 1
 92 333.333007812 l 1
 92 416.666992188 l 1
EndSplineSet
EndChar

StartChar: l
Encoding: 108 108 1
Width: 272
VWidth: 0
Flags: W
HStem: 0 21G<86.5264 169.859> 730 20G<86.5264 106.526>
VStem: 86.5264 83.333<0 666.667>
LayerCount: 2
Fore
SplineSet
86.5263671875 750 m 1
 169.859375 666.666992188 l 1
 169.859375 0 l 1
 86.5263671875 0 l 1
 86.5263671875 750 l 1
EndSplineSet
Validated: 1
EndChar

StartChar: y
Encoding: 121 121 2
Width: 513
VWidth: 0
Flags: W
HStem: -250 21G<338.142 358.142> 0 83.333<171.475 254.809> 396.667 20G<88.1416 108.141 401.475 421.475>
VStem: 88.1416 83.333<83.333 333.333> 338.142 83.333<-166.667 333.333>
LayerCount: 2
Fore
SplineSet
88.1416015625 416.666992188 m 1
 171.474609375 333.333007812 l 1
 171.474609375 83.3330078125 l 1
 254.80859375 83.3330078125 l 1
 254.80859375 0 l 1
 171.474609375 0 l 1
 88.1416015625 83.3330078125 l 1
 88.1416015625 416.666992188 l 1
338.141601562 333.333007812 m 1
 421.474609375 416.666992188 l 1
 421.474609375 -166.666992188 l 1
 338.141601562 -250 l 1
 338.141601562 333.333007812 l 1
EndSplineSet
Validated: 1
EndChar

StartChar: p
Encoding: 112 112 3
Width: 500
VWidth: 0
Flags: W
HStem: -250 21G<146.91 166.91> 0 83.333<250.244 333.577> 396.667 20G<83.5771 103.577 313.577 353.577>
VStem: 83.5771 83.333<-166.667 333.333> 333.577 83.333<83.333 333.333>
LayerCount: 2
Fore
SplineSet
83.5771484375 416.666992188 m 1
 166.91015625 333.333007812 l 1
 166.91015625 -250 l 1
 83.5771484375 -166.666992188 l 1
 83.5771484375 416.666992188 l 1
250.244140625 333.333007812 m 1
 333.577148438 416.666992188 l 1
 416.91015625 333.333007812 l 1
 416.91015625 83.3330078125 l 1
 333.577148438 0 l 1
 250.244140625 0 l 1
 250.244140625 83.3330078125 l 1
 333.577148438 83.3330078125 l 1
 333.577148438 333.333007812 l 1
 250.244140625 333.333007812 l 1
EndSplineSet
Validated: 1
EndChar

StartChar: i
Encoding: 105 105 4
Width: 247
VWidth: 0
Flags: W
HStem: 0 21G<79.8555 163.188> 396.667 20G<79.8555 163.188>
VStem: 79.8555 83.333<0 250>
LayerCount: 2
Fore
SplineSet
79.85546875 250 m 1
 163.188476562 250 l 1
 163.188476562 0 l 1
 79.85546875 0 l 1
 79.85546875 250 l 1
79.85546875 416.666992188 m 1
 163.188476562 416.666992188 l 1
 163.188476562 333.333007812 l 1
 79.85546875 416.666992188 l 1
EndSplineSet
Validated: 1
EndChar

StartChar: a
Encoding: 97 97 5
Width: 588
VWidth: 0
Flags: W
HStem: 0 21G<140.291 180.291 390.291 430.291> 333.333 83.334<160.291 243.625>
VStem: 76.958 83.333<83.333 333.333> 326.958 83.333<83.333 333.333>
LayerCount: 2
Fore
SplineSet
76.9580078125 83.3330078125 m 1
 76.9580078125 333.333007812 l 1
 160.291015625 416.666992188 l 1
 243.625 416.666992188 l 1
 243.625 333.333007812 l 1
 160.291015625 333.333007812 l 1
 160.291015625 83.3330078125 l 1
 243.625 83.3330078125 l 1
 160.291015625 0 l 1
 76.9580078125 83.3330078125 l 1
326.958007812 416.666992188 m 1
 410.291015625 333.333007812 l 1
 410.291015625 83.3330078125 l 1
 493.625 83.3330078125 l 1
 410.291015625 0 l 1
 326.958007812 83.3330078125 l 1
 326.958007812 416.666992188 l 1
EndSplineSet
Validated: 1
EndChar

StartChar: j
Encoding: 106 106 6
Width: 365
VWidth: 0
Flags: W
HStem: -250 83.333<125.333 208.667> 396.667 20G<208.667 292>
VStem: 208.667 83.333<-166.667 166.667>
LayerCount: 2
Fore
SplineSet
42 -250 m 1
 42 -83.3330078125 l 1
 125.333007812 -166.666992188 l 1
 208.666992188 -166.666992188 l 1
 208.666992188 166.666992188 l 1
 125.333007812 250 l 1
 292 250 l 1
 292 -250 l 1
 42 -250 l 1
208.666992188 416.666992188 m 1
 292 416.666992188 l 1
 208.666992188 333.333007812 l 1
 208.666992188 416.666992188 l 1
EndSplineSet
Validated: 1
EndChar

StartChar: o
Encoding: 111 111 7
Width: 488
VWidth: 0
Flags: W
HStem: 0 21G<141.333 161.333 308 348> 333.333 83.334<244.667 328>
VStem: 78 83.333<83.333 333.333> 328 83.333<83.333 333.333>
LayerCount: 2
Fore
SplineSet
161.333007812 0 m 1
 78 83.3330078125 l 1
 78 333.333007812 l 1
 161.333007812 416.666992188 l 1
 161.333007812 416.666992188 161.333007812 333.333007812 161.333007812 333.333007812 c 1
 161.333007812 83.3330078125 l 1
 161.333007812 0 l 1
328 0 m 1
 244.666992188 83.3330078125 l 1
 328 83.3330078125 l 1
 328 333.333007812 l 1
 244.666992188 333.333007812 l 1
 244.666992188 416.666992188 l 1
 328 416.666992188 l 1
 411.333007812 333.333007812 l 1
 411.333007812 83.3330078125 l 1
 328 0 l 1
EndSplineSet
Validated: 1
EndChar

StartChar: f
Encoding: 102 102 8
Width: 513
VWidth: 0
Flags: W
HStem: -250 21G<97.2402 117.24> 396.667 20G<160.573 180.573 263.907 347.24> 416.667 21G<97.2402 117.24> 583.333 83.334<263.907 347.24>
VStem: 97.2402 83.333<-166.667 333.333 500 583.333>
LayerCount: 2
Fore
SplineSet
97.240234375 -250 m 1xd8
 97.240234375 333.333007812 l 1
 180.573242188 416.666992188 l 1
 180.573242188 -166.666992188 l 1
 97.240234375 -250 l 1xd8
263.907226562 416.666992188 m 1
 347.240234375 416.666992188 l 1
 263.907226562 333.333007812 l 1
 263.907226562 416.666992188 l 1
97.240234375 416.666992188 m 1xb8
 97.240234375 583.333007812 l 1
 180.573242188 666.666992188 l 1
 180.573242188 500 l 1
 97.240234375 416.666992188 l 1xb8
263.907226562 666.666992188 m 1
 430.573242188 666.666992188 l 1
 347.240234375 583.333007812 l 1
 263.907226562 583.333007812 l 1
 263.907226562 666.666992188 l 1
EndSplineSet
Validated: 1
EndChar

StartChar: F
Encoding: 70 70 9
Width: 671
VWidth: 0
Flags: W
HStem: 0 21G<84 167.333> 333.333 83.334<167.333 334> 666.667 83.333<167.333 500.667>
VStem: 84 83.333<0 333.333 583.333 666.667>
LayerCount: 2
Fore
SplineSet
84 500 m 1
 84 666.666992188 l 1
 167.333007812 750 l 1
 584 750 l 1
 500.666992188 666.666992188 l 1
 167.333007812 666.666992188 l 1
 167.333007812 583.333007812 l 1
 84 500 l 1
84 0 m 1
 84 333.333007812 l 1
 167.333007812 416.666992188 l 1
 417.333007812 416.666992188 l 1
 334 333.333007812 l 1
 167.333007812 333.333007812 l 1
 167.333007812 0 l 1
 84 0 l 1
EndSplineSet
Validated: 1
EndChar

StartChar: b
Encoding: 98 98 10
Width: 504
VWidth: 0
Flags: W
HStem: 0 21G<78 98 308 348> 333.333 83.334<244.667 328>
VStem: 78 83.333<83.333 583.333> 328 83.333<83.333 333.333>
LayerCount: 2
Fore
SplineSet
78 0 m 1
 78 583.333007812 l 1
 161.333007812 666.666992188 l 1
 161.333007812 83.3330078125 l 1
 78 0 l 1
328 0 m 1
 244.666992188 83.3330078125 l 1
 328 83.3330078125 l 1
 328 333.333007812 l 1
 244.666992188 333.333007812 l 1
 244.666992188 416.666992188 l 1
 328 416.666992188 l 1
 411.333007812 333.333007812 l 1
 411.333007812 83.3330078125 l 1
 328 0 l 1
EndSplineSet
Validated: 1
EndChar

StartChar: c
Encoding: 99 99 11
Width: 518
VWidth: 0
Flags: W
HStem: 0 83.333<165.333 332> 333.333 83.334<165.333 332>
VStem: 82 83.333<83.333 333.333>
LayerCount: 2
Fore
SplineSet
165.333007812 0 m 1
 82 83.3330078125 l 1
 82 333.333007812 l 1
 165.333007812 416.666992188 l 1
 415.333007812 416.666992188 l 1
 332 333.333007812 l 1
 165.333007812 333.333007812 l 1
 165.333007812 83.3330078125 l 1
 332 83.3330078125 l 1
 415.333007812 0 l 1
 165.333007812 0 l 1
EndSplineSet
Validated: 1
EndChar

StartChar: d
Encoding: 100 100 12
Width: 507
VWidth: 0
Flags: W
HStem: 0 21G<144.558 184.558 394.558 414.558> 333.333 83.334<164.558 247.892>
VStem: 81.2246 83.333<83.333 333.333> 331.225 83.333<83.333 583.333>
LayerCount: 2
Fore
SplineSet
331.224609375 83.3330078125 m 1
 331.224609375 666.666992188 l 1
 414.557617188 583.333007812 l 1
 414.557617188 0 l 1
 331.224609375 83.3330078125 l 1
164.557617188 0 m 1
 81.224609375 83.3330078125 l 1
 81.224609375 333.333007812 l 1
 164.557617188 416.666992188 l 1
 247.891601562 416.666992188 l 1
 247.891601562 333.333007812 l 1
 164.557617188 333.333007812 l 1
 164.557617188 83.3330078125 l 1
 247.891601562 83.3330078125 l 1
 164.557617188 0 l 1
EndSplineSet
Validated: 1
EndChar

StartChar: e
Encoding: 101 101 13
Width: 503
VWidth: 0
Flags: W
HStem: 0 83.333<249.209 332.542> 166.667 83.333<249.209 332.542> 333.333 83.334<249.209 332.542>
VStem: 82.542 83.333<83.333 333.333> 332.542 83.333<250 333.333>
LayerCount: 2
Fore
SplineSet
165.875 0 m 1
 82.5419921875 83.3330078125 l 1
 82.5419921875 333.333007812 l 1
 165.875 416.666992188 l 1
 165.875 0 l 1
249.208984375 416.666992188 m 1
 332.541992188 416.666992188 l 1
 415.875 333.333007812 l 1
 415.875 250 l 1
 332.541992188 166.666992188 l 1
 249.208984375 166.666992188 l 1
 249.208984375 250 l 1
 332.541992188 250 l 1
 332.541992188 333.333007812 l 1
 249.208984375 333.333007812 l 1
 249.208984375 416.666992188 l 1
249.208984375 83.3330078125 m 1
 415.875 83.3330078125 l 1
 332.541992188 0 l 1
 249.208984375 0 l 1
 249.208984375 83.3330078125 l 1
EndSplineSet
Validated: 1
EndChar

StartChar: g
Encoding: 103 103 14
Width: 538
VWidth: 0
Flags: W
HStem: -250 83.333<183.333 266.667> 0 83.333<183.333 266.667> 396.667 20G<163.333 203.333 413.333 433.333>
VStem: 100 83.333<-166.667 -83.333 83.333 333.333> 350 83.333<-166.667 333.333>
LayerCount: 2
Fore
SplineSet
266.666992188 -166.666992188 m 1
 266.666992188 -250 l 1
 183.333007812 -250 l 1
 100 -166.666992188 l 1
 100 -83.3330078125 l 1
 183.333007812 -83.3330078125 l 1
 183.333007812 -166.666992188 l 1
 266.666992188 -166.666992188 l 1
350 -250 m 1
 350 333.333007812 l 1
 433.333007812 416.666992188 l 1
 433.333007812 -166.666992188 l 1
 350 -250 l 1
266.666992188 333.333007812 m 1
 183.333007812 333.333007812 l 1
 183.333007812 83.3330078125 l 1
 266.666992188 83.3330078125 l 1
 266.666992188 0 l 1
 183.333007812 0 l 1
 100 83.3330078125 l 1
 100 333.333007812 l 1
 183.333007812 416.666992188 l 1
 266.666992188 333.333007812 l 1
EndSplineSet
Validated: 1
EndChar

StartChar: h
Encoding: 104 104 15
Width: 516
VWidth: 0
Flags: W
HStem: 0 21G<92 112 405.333 425.333> 333.333 83.334<258.667 342>
VStem: 92 83.333<83.333 583.333> 342 83.333<83.333 333.333>
LayerCount: 2
Fore
SplineSet
92 0 m 1
 92 583.333007812 l 1
 175.333007812 666.666992188 l 1
 175.333007812 83.3330078125 l 1
 92 0 l 1
258.666992188 416.666992188 m 1
 342 416.666992188 l 1
 425.333007812 333.333007812 l 1
 425.333007812 0 l 1
 342 83.3330078125 l 1
 342 333.333007812 l 1
 258.666992188 333.333007812 l 1
 258.666992188 416.666992188 l 1
EndSplineSet
Validated: 1
EndChar

StartChar: m
Encoding: 109 109 16
Width: 856
VWidth: 0
Flags: W
HStem: 0 21G<87 107 400.333 420.333 650.333 690.333> 333.333 83.334<253.667 337 503.667 587>
VStem: 87 83.333<83.333 333.333> 337 83.333<83.333 331.242> 587 83.333<83.333 333.333>
CounterMasks: 1 38
LayerCount: 2
Fore
SplineSet
87 0 m 1
 87 416.666992188 l 1
 170.333007812 333.333007812 l 1
 170.333007812 83.3330078125 l 1
 87 0 l 1
337 83.3330078125 m 1
 337 331.2421875 l 1
 253.666992188 333.333007812 l 1
 253.666992188 416.666992188 l 1
 337 416.666992188 l 1
 420.333007812 333.333007812 l 1
 420.333007812 0 l 1
 337 83.3330078125 l 1
587 416.666992188 m 1
 670.333007812 333.333007812 l 1
 670.333007812 83.3330078125 l 1
 753.666992188 83.3330078125 l 1
 670.333007812 0 l 1
 587 83.3330078125 l 1
 587 333.333007812 l 1
 503.666992188 333.333007812 l 1
 503.666992188 416.666992188 l 1
 587 416.666992188 l 1
EndSplineSet
Validated: 1
EndChar

StartChar: n
Encoding: 110 110 17
Width: 589
VWidth: 0
Flags: W
HStem: 0 21G<90.6436 110.644 403.977 443.977> 333.333 83.334<257.311 340.644>
VStem: 90.6436 83.333<83.333 333.333> 340.644 83.333<83.333 333.333>
LayerCount: 2
Fore
SplineSet
90.6435546875 0 m 1
 90.6435546875 416.666992188 l 1
 173.9765625 333.333007812 l 1
 173.9765625 83.3330078125 l 1
 90.6435546875 0 l 1
257.310546875 416.666992188 m 1
 340.643554688 416.666992188 l 1
 423.9765625 333.333007812 l 1
 423.9765625 83.3330078125 l 1
 507.310546875 83.3330078125 l 1
 423.9765625 0 l 1
 340.643554688 83.3330078125 l 1
 340.643554688 333.333007812 l 1
 257.310546875 333.333007812 l 1
 257.310546875 416.666992188 l 1
EndSplineSet
Validated: 1
EndChar

StartChar: q
Encoding: 113 113 18
Width: 500
VWidth: 0
Flags: W
HStem: -250 21G<250 270> 0 83.333<83.333 166.667> 396.667 20G<63.3332 103.333 313.333 333.333>
VStem: 0 83.333<83.333 333.333> 250 83.333<-166.667 333.333>
LayerCount: 2
Fore
SplineSet
250 -250 m 1
 250 333.333007812 l 1
 333.333007812 416.666992188 l 1
 333.333007812 -166.666992188 l 1
 250 -250 l 1
166.666992188 333.333007812 m 1
 83.3330078125 333.333007812 l 1
 83.3330078125 83.3330078125 l 1
 166.666992188 83.3330078125 l 1
 166.666992188 0 l 1
 83.3330078125 0 l 1
 0 83.3330078125 l 1
 0 333.333007812 l 1
 83.3330078125 416.666992188 l 1
 166.666992188 333.333007812 l 1
EndSplineSet
Validated: 1
EndChar

StartChar: s
Encoding: 115 115 19
Width: 524
VWidth: 0
Flags: W
HStem: 0 83.333<165.829 249.163> 166.667 83.333<165.829 249.163> 333.333 83.334<165.829 249.163>
VStem: 82.4961 83.333<250 333.333> 332.496 83.333<83.333 166.667>
LayerCount: 2
Fore
SplineSet
82.49609375 83.3330078125 m 1
 165.829101562 83.3330078125 l 1
 249.163085938 83.3330078125 l 1
 249.163085938 0 l 1
 165.829101562 0 l 1
 82.49609375 83.3330078125 l 1
332.49609375 0 m 1
 332.49609375 0 332.49609375 83.3330078125 332.49609375 83.3330078125 c 1
 332.49609375 166.666992188 l 1
 332.49609375 250 l 1
 415.829101562 166.666992188 l 1
 415.829101562 83.3330078125 l 1
 332.49609375 0 l 1
165.829101562 166.666992188 m 1
 82.49609375 250 l 1
 82.49609375 333.333007812 l 1
 165.829101562 416.666992188 l 1
 249.163085938 416.666992188 l 1
 249.163085938 333.333007812 l 1
 165.829101562 333.333007812 l 1
 165.829101562 250 l 1
 249.163085938 250 l 1
 249.163085938 166.666992188 l 1
 165.829101562 166.666992188 l 1
332.49609375 416.666992188 m 1
 415.829101562 416.666992188 l 1
 332.49609375 333.333007812 l 1
 332.49609375 333.333007812 332.49609375 416.666992188 332.49609375 416.666992188 c 1
EndSplineSet
Validated: 1
EndChar

StartChar: t
Encoding: 116 116 20
Width: 339
VWidth: 0
Flags: W
HStem: 0 21G<86 169.333> 333.333 83.334<169.333 252.667> 416.667 21G<86 106>
VStem: 86 83.333<0 333.333 500 583.333>
LayerCount: 2
Fore
SplineSet
86 0 m 1xd0
 86 333.333007812 l 1
 169.333007812 416.666992188 l 1
 252.666992188 416.666992188 l 1
 252.666992188 333.333007812 l 1
 169.333007812 333.333007812 l 1
 169.333007812 0 l 1
 86 0 l 1xd0
86 416.666992188 m 1xb0
 86 583.333007812 l 1
 169.333007812 666.666992188 l 1
 169.333007812 500 l 1
 86 416.666992188 l 1xb0
EndSplineSet
Validated: 1
EndChar

StartChar: u
Encoding: 117 117 21
Width: 593
VWidth: 0
Flags: W
HStem: 0 83.333<168.333 251.667> 396.667 20G<85 105 398.333 418.333>
VStem: 85 83.333<83.333 333.333> 335 83.333<83.333 333.333>
LayerCount: 2
Fore
SplineSet
85 416.666992188 m 1
 168.333007812 333.333007812 l 1
 168.333007812 83.3330078125 l 1
 251.666992188 83.3330078125 l 1
 251.666992188 0 l 1
 168.333007812 0 l 1
 85 83.3330078125 l 1
 85 416.666992188 l 1
501.666992188 83.3330078125 m 1
 418.333007812 0 l 1
 335 83.3330078125 l 1
 335 333.333007812 l 1
 418.333007812 416.666992188 l 1
 418.333007812 83.3330078125 l 1
 501.666992188 83.3330078125 l 1
EndSplineSet
Validated: 1
EndChar

StartChar: v
Encoding: 118 118 22
Width: 496
VWidth: 0
Flags: W
HStem: 0 83.333<160.768 244.102> 396.667 20G<77.4346 97.4343 390.768 410.768>
VStem: 77.4346 83.333<83.333 333.333> 327.435 83.333<83.333 333.333>
LayerCount: 2
Fore
SplineSet
77.4345703125 416.666992188 m 1
 160.767578125 333.333007812 l 1
 160.767578125 83.3330078125 l 1
 244.1015625 83.3330078125 l 1
 244.1015625 0 l 1
 160.767578125 0 l 1
 77.4345703125 83.3330078125 l 1
 77.4345703125 416.666992188 l 1
410.767578125 416.666992188 m 1
 410.767578125 83.3330078125 l 1
 327.434570312 0 l 1
 327.434570312 333.333007812 l 1
 410.767578125 416.666992188 l 1
EndSplineSet
Validated: 1
EndChar

StartChar: z
Encoding: 122 122 23
Width: 518
VWidth: 0
Flags: W
HStem: 0 83.333<173.333 256.667> 166.667 83.333<173.333 256.667> 333.333 83.334<173.333 256.667>
VStem: 90 83.333<83.333 166.667> 340 83.333<250 333.333>
LayerCount: 2
Fore
SplineSet
90 83.3330078125 m 1
 90 166.666992188 l 1
 173.333007812 250 l 1
 256.666992188 250 l 1
 256.666992188 166.666992188 l 1
 173.333007812 166.666992188 l 1
 173.333007812 83.3330078125 l 1
 256.666992188 83.3330078125 l 1
 256.666992188 0 l 1
 173.333007812 0 l 1
 90 83.3330078125 l 1
340 83.3330078125 m 1
 423.333007812 83.3330078125 l 1
 340 0 l 1
 340 83.3330078125 l 1
90 416.666992188 m 1
 90 416.666992188 256.666992188 416.666992188 256.666992188 416.666992188 c 1
 256.666992188 333.333007812 l 1
 173.333007812 333.333007812 l 1
 90 416.666992188 l 1
340 166.666992188 m 1
 340 416.666992188 l 1
 423.333007812 333.333007812 l 1
 423.333007812 250 l 1
 340 166.666992188 l 1
EndSplineSet
Validated: 1
EndChar

StartChar: L
Encoding: 76 76 24
Width: 676
VWidth: 0
Flags: W
HStem: 0 83.333<86 502.667> 730 20G<149.333 169.333>
VStem: 86 83.333<250 666.667>
LayerCount: 2
Fore
SplineSet
169.333007812 750 m 1
 169.333007812 250 l 1
 86 166.666992188 l 1
 86 666.666992188 l 1
 169.333007812 750 l 1
86 83.3330078125 m 1
 502.666992188 83.3330078125 l 1
 586 0 l 1
 86 0 l 1
 86 83.3330078125 l 1
EndSplineSet
EndChar

StartChar: x
Encoding: 120 120 25
Width: 494
VWidth: 0
Flags: W
HStem: 0 21G<79.4697 162.803 329.47 412.803> 83.333 83.334<246.137 329.47> 250 83.333<246.137 329.47> 396.667 20G<79.4697 162.803 329.47 412.803>
VStem: 79.4697 83.333<0 83.333 333.333 416.667> 329.47 83.333<0 83.333 333.333 416.667>
LayerCount: 2
Fore
SplineSet
79.4697265625 0 m 1
 79.4697265625 83.3330078125 l 1
 162.802734375 166.666992188 l 1
 162.802734375 0 l 1
 79.4697265625 0 l 1
162.802734375 250 m 1
 79.4697265625 333.333007812 l 1
 79.4697265625 416.666992188 l 1
 162.802734375 416.666992188 l 1
 162.802734375 250 l 1
246.13671875 250 m 1
 246.13671875 333.333007812 l 1
 329.469726562 333.333007812 l 1
 329.469726562 416.666992188 l 1
 412.802734375 416.666992188 l 1
 412.802734375 333.333007812 l 1
 329.469726562 250 l 1
 246.13671875 250 l 1
246.13671875 166.666992188 m 1
 329.469726562 166.666992188 l 1
 412.802734375 83.3330078125 l 1
 412.802734375 0 l 1
 329.469726562 0 l 1
 329.469726562 83.3330078125 l 1
 246.13671875 83.3330078125 l 1
 246.13671875 166.666992188 l 1
EndSplineSet
Validated: 1
EndChar

StartChar: k
Encoding: 107 107 26
Width: 1000
VWidth: 0
HStem: 0 21G<0 20 313.333 353.333> 333.333 83.334<166.667 250> 417 21G<250 270.08>
VStem: 0 83.333<83.333 583.333> 250 83.333<83.333 333.333 500 583.333>
LayerCount: 2
Fore
SplineSet
0 0 m 1
 0 0 0 583.333007812 0 583.333007812 c 1
 83.3330078125 666.666992188 l 1
 83.3330078125 83.3330078125 l 1
 0 0 l 1
250 666.666992188 m 1
 333.333007812 583.333007812 l 1
 333.333007812 500 l 1
 250 417 l 1
 250 666.666992188 l 1
166.666992188 416.666992188 m 1
 250 416.666992188 l 1
 333.333007812 333.333007812 l 1
 333.333007812 83.3330078125 l 1
 416.666992188 83.3330078125 l 1
 333.333007812 0 l 1
 250 83.3330078125 l 1
 250 333.333007812 l 1
 166.666992188 333.333007812 l 1
 166.666992188 416.666992188 l 1
EndSplineSet
Validated: 1
EndChar

StartChar: r
Encoding: 114 114 27
Width: 521
VWidth: 0
Flags: W
HStem: 0 21G<86 169.333> 333.333 83.334<252.667 336>
VStem: 86 83.333<0 333.333>
LayerCount: 2
Fore
SplineSet
169.333007812 0 m 1
 86 0 l 1
 86 416.666992188 l 1
 169.333007812 333.333007812 l 1
 169.333007812 0 l 1
252.666992188 416.666992188 m 1
 336 416.666992188 l 1
 419.333007812 333.333007812 l 1
 363.77734375 333.333007812 308.22265625 333.333007812 252.666992188 333.333007812 c 1
 252.666992188 416.666992188 l 1
EndSplineSet
Validated: 1
EndChar

StartChar: w
Encoding: 119 119 28
Width: 771
VWidth: 0
Flags: W
HStem: 0.188477 83.0195<174.863 257.883 424.675 507.693> 395.66 20G<91.8447 111.845 341.656 361.656 652.977 672.977>
VStem: 91.8447 83.0186<83.208 332.642> 341.656 83.0186<82.8301 332.642> 589.958 83.0186<83.585 333.396>
LayerCount: 2
Fore
SplineSet
91.8447265625 415.66015625 m 1
 174.86328125 332.641601562 l 1
 174.86328125 83.2080078125 l 1
 257.8828125 83.2080078125 l 1
 257.8828125 0.1884765625 l 1
 174.86328125 0.1884765625 l 1
 91.8447265625 83.2080078125 l 1
 91.8447265625 415.66015625 l 1
424.674804688 332.641601562 m 1
 424.674804688 82.830078125 l 1
 507.693359375 82.830078125 l 1
 507.693359375 -0.1884765625 l 1
 424.674804688 -0.1884765625 l 1
 341.65625 82.830078125 l 1
 341.65625 415.66015625 l 1
 424.674804688 332.641601562 l 1
589.958007812 0.56640625 m 1
 589.958007812 333.396484375 l 1
 672.9765625 416.415039062 l 1
 672.9765625 83.5849609375 l 1
 589.958007812 0.56640625 l 1
EndSplineSet
Validated: 1
EndChar

StartChar: exclam
Encoding: 33 33 29
Width: 250
VWidth: 0
Flags: HW
HStem: 0 21G<164 184>
VStem: 164 83.333<166.667 583.333>
LayerCount: 2
Fore
SplineSet
82 166.666992188 m 1
 82 666.666992188 l 1
 165.333007812 750 l 1
 165.333007812 250 l 1
 82 166.666992188 l 1
165.333007812 83.3330078125 m 1
 82 0 l 1
 82 83.3330078125 l 1
 165.333007812 83.3330078125 l 1
EndSplineSet
EndChar

StartChar: quotedbl
Encoding: 34 34 30
Width: 450
VWidth: 0
Flags: W
HStem: 666.667 83.333
VStem: 92 250
LayerCount: 2
Fore
SplineSet
175.333007812 666.666992188 m 1
 92 666.666992188 l 1
 92 750 l 1
 175.333007812 666.666992188 l 1
258.666992188 666.666992188 m 1
 258.666992188 750 l 1
 342 666.666992188 l 1
 258.666992188 666.666992188 l 1
EndSplineSet
Validated: 1
EndChar

StartChar: numbersign
Encoding: 35 35 31
Width: 758
VWidth: 0
Flags: HW
HStem: 0 166.667<241.333 324.667 408 491.333> 83.333 83.334<158 241.333 491.333 574.667> 250 166.667<241.333 324.667 408 491.333> 250 83.333<158 241.333 491.333 574.667>
VStem: 158 166.667<83.333 166.667 250 333.333> 241.333 83.334<0 83.333 333.333 416.667> 408 166.667<83.333 166.667 250 333.333> 408 83.333<0 83.333 333.333 416.667>
LayerCount: 2
Fore
SplineSet
242.666992188 83.3330078125 m 1
 242.666992188 250 l 1
 76 250 l 1
 159.333007812 333.333007812 l 1
 242.666992188 333.333007812 l 1
 326 250 l 1
 326 166.666992188 l 1
 242.666992188 83.3330078125 l 1
409.333007812 500 m 1
 409.333007812 583.333007812 l 1
 492.666992188 666.666992188 l 1
 492.666992188 500 l 1
 659.333007812 500 l 1
 576 416.666992188 l 1
 492.666992188 416.666992188 l 1
 409.333007812 500 l 1
409.333007812 250 m 1
 492.666992188 333.333007812 l 1
 659.333007812 333.333007812 l 1
 576 250 l 1
 492.666992188 250 l 1
 492.666992188 166.666992188 l 1
 409.333007812 83.3330078125 l 1
 409.333007812 250 l 1
76 416.666992188 m 1
 159.333007812 500 l 1
 242.666992188 500 l 1
 242.666992188 583.333007812 l 1
 326 666.666992188 l 1
 326 500 l 1
 242.666992188 416.666992188 l 1
 76 416.666992188 l 1
EndSplineSet
EndChar

StartChar: percent
Encoding: 37 37 32
Width: 627
VWidth: 0
Flags: HW
HStem: 0 21G<434 454> 166.667 83.333<267.333 517.333> 396.667 20G<330.667 350.667>
LayerCount: 2
Fore
SplineSet
179.333007812 416.666992188 m 1
 429.333007812 416.666992188 l 1
 429.333007812 500 l 1
 512.666992188 416.666992188 l 1
 429.333007812 333.333007812 l 1
 179.333007812 333.333007812 l 1
 179.333007812 250 l 1
 96 333.333007812 l 1
 179.333007812 416.666992188 l 1
262.666992188 666.666992188 m 1
 262.666992188 583.333007812 l 1
 179.333007812 583.333007812 l 1
 262.666992188 666.666992188 l 1
346 166.666992188 m 1
 429.333007812 166.666992188 l 1
 346 83.3330078125 l 1
 346 166.666992188 l 1
EndSplineSet
EndChar

StartChar: one
Encoding: 49 49 33
Width: 380
VWidth: 0
Flags: W
HStem: 0 21G<183.333 266.667> 730 20G<163.333 203.333>
VStem: 183.333 83.334<0 666.667>
LayerCount: 2
Fore
SplineSet
100 666.666992188 m 1
 183.333007812 750 l 1
 266.666992188 666.666992188 l 1
 266.666992188 0 l 1
 183.333007812 0 l 1
 183.333007812 666.666992188 l 1
 100 666.666992188 l 1
EndSplineSet
Validated: 1
EndChar

StartChar: quotesingle
Encoding: 39 39 34
Width: 258
VWidth: 0
Flags: W
HStem: 666.667 83.333
VStem: 86 83.333
LayerCount: 2
Fore
SplineSet
86 666.666992188 m 1
 86 750 l 1
 169.333007812 750 l 1
 86 666.666992188 l 1
EndSplineSet
Validated: 1
EndChar

StartChar: parenleft
Encoding: 40 40 35
Width: 442
VWidth: 0
Flags: W
HStem: 0 83.333<177.333 260.667> 666.667 83.333<177.333 260.667>
VStem: 94 83.333<83.333 666.667>
LayerCount: 2
Fore
SplineSet
177.333007812 750 m 1
 260.666992188 750 l 1
 344 666.666992188 l 1
 177.333007812 666.666992188 l 1
 177.333007812 83.3330078125 l 1
 344 83.3330078125 l 1
 260.666992188 0 l 1
 177.333007812 0 l 1
 94 83.3330078125 l 1
 94 666.666992188 l 1
 177.333007812 750 l 1
EndSplineSet
Validated: 1
EndChar

StartChar: parenright
Encoding: 41 41 36
Width: 450
VWidth: 0
Flags: W
HStem: 0 83.333<179.333 262.667> 666.667 83.333<179.333 262.667>
VStem: 262.667 83.333<83.333 666.667>
LayerCount: 2
Fore
SplineSet
262.666992188 750 m 1
 346 666.666992188 l 1
 346 83.3330078125 l 1
 262.666992188 0 l 1
 179.333007812 0 l 1
 96 83.3330078125 l 1
 262.666992188 83.3330078125 l 1
 262.666992188 666.666992188 l 1
 96 666.666992188 l 1
 179.333007812 750 l 1
 262.666992188 750 l 1
EndSplineSet
Validated: 1
EndChar

StartChar: asterisk
Encoding: 42 42 37
Width: 270
VWidth: 0
Flags: W
HStem: 666.667 83.333<90 173.333>
VStem: 90 83.333<666.667 750>
LayerCount: 2
Fore
SplineSet
90 750 m 1
 173.333007812 750 l 1
 173.333007812 666.666992188 l 1
 90 666.666992188 l 1
 90 750 l 1
EndSplineSet
Validated: 1
EndChar

StartChar: comma
Encoding: 44 44 38
Width: 368
VWidth: 0
Flags: W
HStem: -83.333 166.666
VStem: 175.333 83.334<0 83.333>
LayerCount: 2
Fore
SplineSet
175.333007812 83.3330078125 m 1
 258.666992188 83.3330078125 l 1
 258.666992188 0 l 1
 175.333007812 -83.3330078125 l 1
 92 0 l 1
 175.333007812 0 l 1
 175.333007812 83.3330078125 l 1
EndSplineSet
Validated: 1
EndChar

StartChar: hyphen
Encoding: 45 45 39
Width: 520
VWidth: 0
Flags: W
HStem: 166.667 83.333<90 423.333>
LayerCount: 2
Fore
SplineSet
90 166.666992188 m 1
 90 250 l 1
 423.333007812 250 l 1
 423.333007812 166.666992188 l 1
 90 166.666992188 l 1
EndSplineSet
Validated: 1
EndChar

StartChar: period
Encoding: 46 46 40
Width: 274
VWidth: 0
Flags: W
HStem: 0 83.333<92 175.333>
VStem: 92 83.333<0 83.333>
LayerCount: 2
Fore
SplineSet
92 83.3330078125 m 1
 175.333007812 83.3330078125 l 1
 175.333007812 0 l 1
 92 0 l 1
 92 83.3330078125 l 1
EndSplineSet
Validated: 1
EndChar

StartChar: colon
Encoding: 58 58 41
Width: 273
VWidth: 0
Flags: HW
HStem: 83.333 83.334<92 175.333> 416.667 83.333<92 175.333>
VStem: 92 83.333<83.333 166.667 416.667 500>
LayerCount: 2
Fore
SplineSet
83.3330078125 583.333007812 m 1
 166.666992188 583.333007812 l 1
 166.666992188 500 l 1
 83.3330078125 500 l 1
 83.3330078125 583.333007812 l 1
83.3330078125 83.3330078125 m 1
 166.666992188 83.3330078125 l 1
 166.666992188 0 l 1
 83.3330078125 0 l 1
 83.3330078125 83.3330078125 l 1
EndSplineSet
EndChar

StartChar: equal
Encoding: 61 61 42
Width: 602
VWidth: 0
Flags: HW
HStem: 83.333 83.334<173 506.333> 250 83.333<173 506.333>
LayerCount: 2
Fore
SplineSet
87 166.666992188 m 1
 87 250 l 1
 503.666992188 250 l 1
 503.666992188 166.666992188 l 1
 87 166.666992188 l 1
87 500 m 1
 87 583.333007812 l 1
 503.666992188 583.333007812 l 1
 503.666992188 500 l 1
 87 500 l 1
EndSplineSet
EndChar

StartChar: zero
Encoding: 48 48 43
Width: 607
VWidth: 0
Flags: HW
LayerCount: 2
Fore
SplineSet
92 750 m 1
 175.333007812 666.666992188 l 1
 175.333007812 83.3330078125 l 1
 258.666992188 83.3330078125 l 1
 342 0 l 1
 175.333007812 0 l 1
 92 83.3330078125 l 1
 92 750 l 1
258.666992188 666.666992188 m 1
 342 750 l 1
 425.333007812 750 l 1
 508.666992188 666.666992188 l 1
 508.666992188 83.3330078125 l 1
 425.333007812 83.3330078125 l 1
 425.333007812 161.536132812 l 1
 425.333007812 666.666992188 l 1
 258.666992188 666.666992188 l 1
EndSplineSet
EndChar

StartChar: four
Encoding: 52 52 44
Width: 592
VWidth: 0
Flags: HW
LayerCount: 2
Fore
SplineSet
88 750 m 1
 171.333007812 666.666992188 l 1
 171.333007812 416.666992188 l 1
 338 416.666992188 l 1
 254.666992188 333.333007812 l 1
 171.333007812 333.333007812 l 1
 88 416.666992188 l 1
 88 666.666992188 l 1
 88 750 l 1
421.333007812 666.666992188 m 1
 504.666992188 750 l 1
 504.666992188 83.3330078125 l 1
 421.333007812 0 l 1
 421.333007812 666.666992188 l 1
EndSplineSet
EndChar

StartChar: seven
Encoding: 55 55 45
Width: 610
VWidth: 0
Flags: HW
LayerCount: 2
Fore
SplineSet
175.333007812 583.333007812 m 1
 92 666.666992188 l 1
 175.333007812 750 l 1
 425.333007812 750 l 1
 508.666992188 666.666992188 l 1
 175.333007812 666.666992188 l 1
 175.333007812 583.333007812 l 1
425.333007812 500 m 1
 508.666992188 583.333007812 l 1
 508.666992188 83.3330078125 l 1
 425.333007812 0 l 1
 425.333007812 500 l 1
EndSplineSet
EndChar

StartChar: eight
Encoding: 56 56 46
Width: 608
VWidth: 0
Flags: HW
LayerCount: 2
Fore
SplineSet
96 250 m 1
 179.333007812 166.666992188 l 1
 179.333007812 83.3330078125 l 1
 429.333007812 83.3330078125 l 1
 429.333007812 166.666992188 l 1
 512.666992188 166.666992188 l 1
 512.666992188 83.3330078125 l 1
 429.333007812 0 l 1
 179.333007812 0 l 1
 96 83.3330078125 l 1
 96 250 l 1
179.333007812 750 m 1
 429.333007812 750 l 1
 512.666992188 666.666992188 l 1
 512.666992188 500 l 1
 429.333007812 583.333007812 l 1
 429.333007812 666.666992188 l 1
 179.333007812 666.666992188 l 1
 179.333007812 583.333007812 l 1
 96 583.333007812 l 1
 96 666.666992188 l 1
 179.333007812 750 l 1
179.333007812 333.333007812 m 1
 96 416.666992188 l 1
 96 500 l 1
 179.333007812 500 l 1
 179.333007812 416.666992188 l 1
 429.333007812 416.666992188 l 1
 512.666992188 333.333007812 l 1
 512.666992188 250 l 1
 429.333007812 250 l 1
 429.333007812 333.333007812 l 1
 179.333007812 333.333007812 l 1
EndSplineSet
EndChar

StartChar: nine
Encoding: 57 57 47
Width: 610
VWidth: 0
Flags: HW
LayerCount: 2
Fore
SplineSet
340 333.333007812 m 1
 173.333007812 333.333007812 l 1
 90 416.666992188 l 1
 90 666.666992188 l 1
 173.333007812 750 l 1
 256.666992188 750 l 1
 340 666.666992188 l 1
 173.333007812 666.666992188 l 1
 173.333007812 416.666992188 l 1
 340 416.666992188 l 1
 340 333.333007812 l 1
423.333007812 0 m 1
 423.333007812 666.666992188 l 1
 506.666992188 750 l 1
 506.666992188 83.3330078125 l 1
 423.333007812 0 l 1
EndSplineSet
EndChar

StartChar: plus
Encoding: 43 43 48
Width: 596
VWidth: 0
Flags: HW
LayerCount: 2
Fore
SplineSet
84 500 m 1
 250.666992188 500 l 1
 250.666992188 666.666992188 l 1
 334 666.666992188 l 1
 334 500 l 1
 250.666992188 416.666992188 l 1
 84 416.666992188 l 1
 84 500 l 1
334 333.333007812 m 1
 334 250 l 1
 250.666992188 166.666992188 l 1
 250.666992188 333.333007812 l 1
 334 333.333007812 l 1
500.666992188 500 m 1
 500.666992188 416.666992188 l 1
 417.333007812 416.666992188 l 1
 500.666992188 500 l 1
EndSplineSet
EndChar

StartChar: at
Encoding: 64 64 49
Width: 850
VWidth: 0
Flags: HW
LayerCount: 2
Fore
SplineSet
254.666992188 166.666992188 m 1
 254.666992188 416.666992188 l 1
 338 500 l 1
 421.333007812 500 l 1
 421.333007812 416.666992188 l 1
 338 416.666992188 l 1
 338 166.666992188 l 1
 421.333007812 166.666992188 l 1
 338 83.3330078125 l 1
 254.666992188 166.666992188 l 1
504.666992188 500 m 1
 588 416.666992188 l 1
 588 166.666992188 l 1
 671.333007812 166.666992188 l 1
 754.666992188 83.3330078125 l 1
 588 83.3330078125 l 1
 504.666992188 166.666992188 l 1
 504.666992188 500 l 1
671.333007812 250 m 1
 671.333007812 583.333007812 l 1
 504.666992188 583.333007812 l 1
 588 666.666992188 l 1
 671.333007812 666.666992188 l 1
 754.666992188 583.333007812 l 1
 754.666992188 333.333007812 l 1
 671.333007812 250 l 1
421.333007812 583.333007812 m 1
 171.333007812 583.333007812 l 1
 171.333007812 0 l 1
 338 0 l 1
 254.666992188 -83.3330078125 l 1
 171.333007812 -83.3330078125 l 1
 88 0 l 1
 88 583.333007812 l 1
 171.333007812 666.666992188 l 1
 338 666.666992188 l 1
 421.333007812 583.333007812 l 1
EndSplineSet
EndChar

StartChar: braceleft
Encoding: 123 123 50
Width: 430
VWidth: 0
Flags: HW
LayerCount: 2
Fore
SplineSet
334 666.666992188 m 1
 250.666992188 666.666992188 l 1
 250.666992188 500 l 1
 167.333007812 416.666992188 l 1
 84 500 l 1
 167.333007812 500 l 1
 167.333007812 666.666992188 l 1
 250.666992188 750 l 1
 334 666.666992188 l 1
334 83.3330078125 m 1
 250.666992188 0 l 1
 167.333007812 83.3330078125 l 1
 167.333007812 250 l 1
 84 250 l 1
 167.333007812 333.333007812 l 1
 250.666992188 250 l 1
 250.666992188 83.3330078125 l 1
 334 83.3330078125 l 1
EndSplineSet
EndChar

StartChar: braceright
Encoding: 125 125 51
Width: 434
VWidth: 0
Flags: HW
LayerCount: 2
Fore
SplineSet
88 666.666992188 m 1
 171.333007812 750 l 1
 254.666992188 666.666992188 l 1
 254.666992188 500 l 1
 338 500 l 1
 254.666992188 416.666992188 l 1
 171.333007812 500 l 1
 171.333007812 666.666992188 l 1
 88 666.666992188 l 1
88 83.3330078125 m 1
 171.333007812 83.3330078125 l 1
 171.333007812 250 l 1
 254.666992188 333.333007812 l 1
 338 250 l 1
 254.666992188 250 l 1
 254.666992188 83.3330078125 l 1
 171.333007812 0 l 1
 88 83.3330078125 l 1
EndSplineSet
EndChar

StartChar: bar
Encoding: 124 124 52
Width: 256
VWidth: 0
Flags: HW
LayerCount: 2
Fore
SplineSet
171.333007812 750 m 1
 171.333007812 0 l 1
 88 0 l 1
 88 750 l 1
 171.333007812 750 l 1
EndSplineSet
EndChar

StartChar: semicolon
Encoding: 59 59 53
Width: 353
VWidth: 0
Flags: HW
LayerCount: 2
Fore
SplineSet
175.333007812 583.333007812 m 1
 258.666992188 583.333007812 l 1
 258.666992188 500 l 1
 175.333007812 500 l 1
 175.333007812 583.333007812 l 1
175.333007812 83.3330078125 m 1
 258.666992188 83.3330078125 l 1
 258.666992188 0 l 1
 175.333007812 -83.3330078125 l 1
 92 0 l 1
 175.333007812 0 l 1
 175.333007812 83.3330078125 l 1
EndSplineSet
EndChar

StartChar: brokenbar
Encoding: 166 166 54
Width: 254
VWidth: 0
Flags: HW
LayerCount: 2
Fore
SplineSet
86 666.666992188 m 1
 169.333007812 750 l 1
 169.333007812 500 l 1
 86 416.666992188 l 1
 86 666.666992188 l 1
86 333.333007812 m 1
 169.333007812 250 l 1
 169.333007812 0 l 1
 86 83.3330078125 l 1
 86 333.333007812 l 1
EndSplineSet
EndChar

StartChar: bracketleft
Encoding: 91 91 55
Width: 332
VWidth: 0
Flags: HW
LayerCount: 2
Fore
SplineSet
244.666992188 750 m 1
 244.666992188 666.666992188 l 1
 161.333007812 666.666992188 l 1
 161.333007812 83.3330078125 l 1
 244.666992188 83.3330078125 l 1
 244.666992188 0 l 1
 161.333007812 0 l 1
 78 83.3330078125 l 1
 78 666.666992188 l 1
 161.333007812 750 l 1
 244.666992188 750 l 1
EndSplineSet
EndChar

StartChar: bracketright
Encoding: 93 93 56
Width: 348
VWidth: 0
Flags: HW
LayerCount: 2
Fore
SplineSet
88 750 m 1
 171.333007812 750 l 1
 254.666992188 666.666992188 l 1
 254.666992188 83.3330078125 l 1
 171.333007812 0 l 1
 88 0 l 1
 88 83.3330078125 l 1
 171.333007812 83.3330078125 l 1
 171.333007812 666.666992188 l 1
 88 666.666992188 l 1
 88 750 l 1
EndSplineSet
EndChar

StartChar: T
Encoding: 84 84 57
Width: 636
VWidth: 0
Flags: HW
LayerCount: 2
Fore
SplineSet
354 83.3330078125 m 1
 270.666992188 0 l 1
 270.666992188 666.666992188 l 1
 104 666.666992188 l 1
 187.333007812 750 l 1
 270.666992188 750 l 1
 354 666.666992188 l 1
 354 83.3330078125 l 1
437.333007812 750 m 1
 520.666992188 750 l 1
 437.333007812 666.666992188 l 1
 437.333007812 750 l 1
EndSplineSet
EndChar

StartChar: O
Encoding: 79 79 58
Width: 612
VWidth: 0
Flags: HW
LayerCount: 2
Fore
SplineSet
175.333007812 666.666992188 m 1
 175.333007812 83.3330078125 l 1
 342 83.3330078125 l 1
 425.333007812 0 l 1
 258.666992188 0 l 1
 175.333007812 0 l 1
 92 83.3330078125 l 1
 92 750 l 1
 175.333007812 666.666992188 l 1
425.333007812 83.3330078125 m 1
 425.333007812 666.666992188 l 1
 258.666992188 666.666992188 l 1
 342 750 l 1
 425.333007812 750 l 1
 508.666992188 666.666992188 l 1
 508.666992188 83.3330078125 l 1
 425.333007812 83.3330078125 l 1
EndSplineSet
EndChar

StartChar: P
Encoding: 80 80 59
Width: 594
VWidth: 0
Flags: HW
LayerCount: 2
Fore
SplineSet
90 83.3330078125 m 1
 90 750 l 1
 173.333007812 666.666992188 l 1
 173.333007812 0 l 1
 90 83.3330078125 l 1
256.666992188 666.666992188 m 1
 340 750 l 1
 423.333007812 750 l 1
 506.666992188 666.666992188 l 1
 506.666992188 416.666992188 l 1
 423.333007812 333.333007812 l 1
 256.666992188 333.333007812 l 1
 256.666992188 416.666992188 l 1
 423.333007812 416.666992188 l 1
 423.333007812 666.666992188 l 1
 256.666992188 666.666992188 l 1
EndSplineSet
EndChar

StartChar: two
Encoding: 50 50 60
Width: 638
VWidth: 0
Flags: HW
LayerCount: 2
Fore
SplineSet
187.333007812 583.333007812 m 1
 104 666.666992188 l 1
 187.333007812 750 l 1
 437.333007812 750 l 1
 520.666992188 666.666992188 l 1
 437.333007812 583.333007812 l 1
 437.333007812 666.666992188 l 1
 187.333007812 666.666992188 l 1
 187.333007812 583.333007812 l 1
437.333007812 500 m 1
 520.666992188 500 l 1
 520.666992188 416.666992188 l 1
 437.333007812 333.333007812 l 1
 187.333007812 333.333007812 l 1
 270.666992188 416.666992188 l 1
 437.333007812 416.666992188 l 1
 437.333007812 500 l 1
187.333007812 250 m 1
 187.333007812 83.3330078125 l 1
 437.333007812 83.3330078125 l 1
 437.333007812 166.666992188 l 1
 520.666992188 83.3330078125 l 1
 437.333007812 0 l 1
 187.333007812 0 l 1
 104 83.3330078125 l 1
 104 250 l 1
 187.333007812 250 l 1
EndSplineSet
EndChar

StartChar: three
Encoding: 51 51 61
Width: 612
VWidth: 0
Flags: HW
LayerCount: 2
Fore
SplineSet
177.333007812 583.333007812 m 1
 94 666.666992188 l 1
 177.333007812 750 l 1
 427.333007812 750 l 1
 510.666992188 666.666992188 l 1
 510.666992188 500 l 1
 427.333007812 583.333007812 l 1
 427.333007812 666.666992188 l 1
 177.333007812 666.666992188 l 1
 177.333007812 583.333007812 l 1
510.666992188 416.666992188 m 1
 510.666992188 333.333007812 l 1
 260.666992188 333.333007812 l 1
 344 416.666992188 l 1
 510.666992188 416.666992188 l 1
510.666992188 0 m 1
 94 0 l 1
 177.333007812 83.3330078125 l 1
 427.333007812 83.3330078125 l 1
 510.666992188 166.666992188 l 1
 510.666992188 166.666992188 510.666992188 0 510.666992188 0 c 1
EndSplineSet
EndChar

StartChar: five
Encoding: 53 53 62
Width: 614
VWidth: 0
Flags: HW
LayerCount: 2
Fore
SplineSet
427.333007812 750 m 1
 510.666992188 666.666992188 l 1
 177.333007812 666.666992188 l 1
 177.333007812 583.333007812 l 1
 94 500 l 1
 94 666.666992188 l 1
 177.333007812 750 l 1
 427.333007812 750 l 1
94 416.666992188 m 1
 427.333007812 416.666992188 l 1
 510.666992188 333.333007812 l 1
 427.333007812 250 l 1
 427.333007812 333.333007812 l 1
 177.333007812 333.333007812 l 1
 94 416.666992188 l 1
94 83.3330078125 m 1
 427.333007812 83.3330078125 l 1
 427.333007812 166.666992188 l 1
 510.666992188 166.666992188 l 1
 510.666992188 83.3330078125 l 1
 427.333007812 0 l 1
 94 0 l 1
 94 83.3330078125 l 1
EndSplineSet
EndChar

StartChar: six
Encoding: 54 54 63
Width: 624
VWidth: 0
Flags: HW
LayerCount: 2
Fore
SplineSet
429.333007812 583.333007812 m 1
 429.333007812 666.666992188 l 1
 179.333007812 666.666992188 l 1
 179.333007812 583.333007812 l 1
 96 583.333007812 l 1
 96 666.666992188 l 1
 179.333007812 750 l 1
 429.333007812 750 l 1
 512.666992188 666.666992188 l 1
 429.333007812 583.333007812 l 1
96 500 m 1
 179.333007812 416.666992188 l 1
 179.333007812 83.3330078125 l 1
 262.666992188 83.3330078125 l 1
 346 0 l 1
 179.333007812 0 l 1
 96 83.3330078125 l 1
 96 500 l 1
429.333007812 83.3330078125 m 1
 429.333007812 333.333007812 l 1
 262.666992188 333.333007812 l 1
 346 416.666992188 l 1
 429.333007812 416.666992188 l 1
 512.666992188 333.333007812 l 1
 512.666992188 83.3330078125 l 1
 429.333007812 83.3330078125 l 1
EndSplineSet
EndChar

StartChar: backslash
Encoding: 92 92 64
Width: 468
VWidth: 0
Flags: HW
LayerCount: 2
Fore
SplineSet
350 83.3330078125 m 1
 266.666992188 0 l 1
 183.333007812 83.3330078125 l 1
 183.333007812 666.666992188 l 1
 100 666.666992188 l 1
 183.333007812 750 l 1
 266.666992188 666.666992188 l 1
 266.666992188 83.3330078125 l 1
 350 83.3330078125 l 1
EndSplineSet
EndChar

StartChar: question
Encoding: 63 63 65
Width: 596
VWidth: 0
Flags: HW
LayerCount: 2
Fore
SplineSet
169.333007812 583.333007812 m 1
 86 666.666992188 l 1
 169.333007812 750 l 1
 419.333007812 750 l 1
 502.666992188 666.666992188 l 1
 502.666992188 500 l 1
 419.333007812 583.333007812 l 1
 419.333007812 666.666992188 l 1
 169.333007812 666.666992188 l 1
 169.333007812 583.333007812 l 1
419.333007812 416.666992188 m 1
 502.666992188 416.666992188 l 1
 419.333007812 333.333007812 l 1
 336 333.333007812 l 1
 336 250 l 1
 252.666992188 166.666992188 l 1
 252.666992188 333.333007812 l 1
 336 416.666992188 l 1
 419.333007812 416.666992188 l 1
252.666992188 83.3330078125 m 1
 336 83.3330078125 l 1
 252.666992188 0 l 1
 252.666992188 83.3330078125 l 1
EndSplineSet
EndChar

StartChar: ampersand
Encoding: 38 38 66
Width: 610
VWidth: 0
Flags: HW
LayerCount: 2
Fore
SplineSet
427.333007812 583.333007812 m 1
 427.333007812 666.666992188 l 1
 177.333007812 666.666992188 l 1
 177.333007812 500 l 1
 94 583.333007812 l 1
 94 666.666992188 l 1
 177.333007812 750 l 1
 427.333007812 750 l 1
 510.666992188 666.666992188 l 1
 427.333007812 583.333007812 l 1
177.333007812 416.666992188 m 1
 177.333007812 83.3330078125 l 1
 260.666992188 83.3330078125 l 1
 260.666992188 83.3330078125 177.333007812 0 177.333007812 0 c 1
 94 83.3330078125 l 1
 94 333.333007812 l 1
 177.333007812 416.666992188 l 1
344 416.666992188 m 1
 510.666992188 416.666992188 l 1
 510.666992188 333.333007812 l 1
 260.666992188 333.333007812 l 1
 344 416.666992188 l 1
427.333007812 250 m 1
 510.666992188 250 l 1
 510.666992188 83.3330078125 l 1
 427.333007812 0 l 1
 344 0 l 1
 344 0 l 1
 344 83.3330078125 l 1
 427.333007812 83.3330078125 l 1
 427.333007812 250 l 1
EndSplineSet
EndChar

StartChar: dollar
Encoding: 36 36 67
Width: 630
VWidth: 0
Flags: HW
LayerCount: 2
Fore
SplineSet
262.666992188 666.666992188 m 1
 346 750 l 1
 346 666.666992188 l 1
 512.666992188 666.666992188 l 1
 429.333007812 583.333007812 l 1
 346 583.333007812 l 1
 262.666992188 666.666992188 l 1
179.333007812 583.333007812 m 1
 179.333007812 416.666992188 l 1
 429.333007812 416.666992188 l 1
 346 333.333007812 l 1
 179.333007812 333.333007812 l 1
 96 416.666992188 l 1
 96 500 l 1
 179.333007812 583.333007812 l 1
96 166.666992188 m 1
 262.666992188 166.666992188 l 1
 346 83.3330078125 l 1
 262.666992188 0 l 1
 262.666992188 83.3330078125 l 1
 179.333007812 83.3330078125 l 1
 96 166.666992188 l 1
429.333007812 166.666992188 m 1
 429.333007812 333.333007812 l 1
 512.666992188 333.333007812 l 1
 512.666992188 166.666992188 l 1
 429.333007812 83.3330078125 l 1
 429.333007812 166.666992188 l 1
EndSplineSet
EndChar

StartChar: underscore
Encoding: 95 95 68
Width: 626
VWidth: 0
Flags: HW
LayerCount: 2
Fore
SplineSet
90 -83.3330078125 m 1
 173.333007812 0 l 1
 506.666992188 0 l 1
 423.333007812 -83.3330078125 l 1
 90 -83.3330078125 l 1
EndSplineSet
EndChar

StartChar: grave
Encoding: 96 96 69
Width: 374
VWidth: 0
Flags: HW
LayerCount: 2
Fore
SplineSet
104 666.666992188 m 1
 187.333007812 750 l 1
 270.666992188 666.666992188 l 1
 270.666992188 583.333007812 l 1
 187.333007812 583.333007812 l 1
 187.333007812 666.666992188 l 1
 104 666.666992188 l 1
EndSplineSet
EndChar

StartChar: slash
Encoding: 47 47 70
Width: 448
VWidth: 0
Flags: HW
LayerCount: 2
Fore
SplineSet
92 83.3330078125 m 1
 175.333007812 83.3330078125 l 1
 175.333007812 666.666992188 l 1
 258.666992188 750 l 1
 342 666.666992188 l 1
 258.666992188 666.666992188 l 1
 258.666992188 83.3330078125 l 1
 175.333007812 0 l 1
 92 83.3330078125 l 1
EndSplineSet
EndChar

StartChar: less
Encoding: 60 60 71
Width: 622
VWidth: 0
Flags: HW
LayerCount: 2
Fore
SplineSet
435.333007812 583.333007812 m 1
 435.333007812 666.666992188 l 1
 518.666992188 583.333007812 l 1
 435.333007812 500 l 1
 185.333007812 500 l 1
 185.333007812 416.666992188 l 1
 102 500 l 1
 185.333007812 583.333007812 l 1
 435.333007812 583.333007812 l 1
185.333007812 333.333007812 m 1
 185.333007812 250 l 1
 435.333007812 250 l 1
 518.666992188 166.666992188 l 1
 435.333007812 83.3330078125 l 1
 435.333007812 166.666992188 l 1
 185.333007812 166.666992188 l 1
 102 250 l 1
 185.333007812 333.333007812 l 1
EndSplineSet
EndChar

StartChar: greater
Encoding: 62 62 72
Width: 634
VWidth: 0
Flags: HW
LayerCount: 2
Fore
SplineSet
193.333007812 583.333007812 m 1
 443.333007812 583.333007812 l 1
 526.666992188 500 l 1
 443.333007812 416.666992188 l 1
 443.333007812 500 l 1
 193.333007812 500 l 1
 110 583.333007812 l 1
 193.333007812 666.666992188 l 1
 193.333007812 583.333007812 l 1
443.333007812 333.333007812 m 1
 526.666992188 250 l 1
 443.333007812 166.666992188 l 1
 193.333007812 166.666992188 l 1
 193.333007812 83.3330078125 l 1
 110 166.666992188 l 1
 193.333007812 250 l 1
 443.333007812 250 l 1
 443.333007812 333.333007812 l 1
EndSplineSet
EndChar

StartChar: A
Encoding: 65 65 73
Width: 594
VWidth: 0
Flags: HW
LayerCount: 2
Fore
SplineSet
88 0 m 1
 88 666.666992188 l 1
 171.333007812 750 l 1
 338 750 l 1
 338 666.666992188 l 1
 171.333007812 666.666992188 l 1
 171.333007812 83.3330078125 l 1
 88 0 l 1
504.666992188 666.666992188 m 1
 504.666992188 416.666992188 l 1
 421.333007812 333.333007812 l 1
 254.666992188 333.333007812 l 1
 338 416.666992188 l 1
 421.333007812 416.666992188 l 1
 421.333007812 583.333007812 l 1
 504.666992188 666.666992188 l 1
504.666992188 0 m 1
 421.333007812 83.3330078125 l 1
 421.333007812 250 l 1
 504.666992188 250 l 1
 504.666992188 0 l 1
EndSplineSet
EndChar

StartChar: B
Encoding: 66 66 74
Width: 606
VWidth: 0
Flags: HW
LayerCount: 2
Fore
SplineSet
96 0 m 1
 96 666.666992188 l 1
 179.333007812 750 l 1
 429.333007812 750 l 1
 512.666992188 666.666992188 l 1
 429.333007812 583.333007812 l 1
 429.333007812 666.666992188 l 1
 179.333007812 666.666992188 l 1
 179.333007812 83.3330078125 l 1
 96 0 l 1
346 416.666992188 m 1
 429.333007812 416.666992188 l 1
 429.333007812 500 l 1
 512.666992188 416.666992188 l 1
 429.333007812 333.333007812 l 1
 262.666992188 333.333007812 l 1
 346 416.666992188 l 1
262.666992188 0 m 1
 262.666992188 83.3330078125 l 1
 429.333007812 83.3330078125 l 1
 429.333007812 250 l 1
 512.666992188 166.666992188 l 1
 512.666992188 0 l 1
 262.666992188 0 l 1
EndSplineSet
EndChar

StartChar: Y
Encoding: 89 89 75
Width: 601
VWidth: 0
Flags: HW
LayerCount: 2
Fore
SplineSet
255.666992188 0 m 1
 255.666992188 416.666992188 l 1
 339 416.666992188 l 1
 339 83.3330078125 l 1
 255.666992188 0 l 1
89 750 m 1
 172.333007812 666.666992188 l 1
 172.333007812 500 l 1
 172.333007812 476.90625 l 1
 172.333007812 416.666992188 l 1
 89 500 l 1
 89 750 l 1
505.666992188 750 m 1
 505.666992188 500 l 1
 422.333007812 416.666992188 l 1
 339 500 l 1
 422.333007812 500 l 1
 422.333007812 666.666992188 l 1
 505.666992188 750 l 1
EndSplineSet
EndChar

StartChar: I
Encoding: 73 73 76
Width: 627
VWidth: 0
Flags: HW
LayerCount: 2
Fore
SplineSet
105 0 m 1
 188.333007812 83.3330078125 l 1
 271.666992188 83.3330078125 l 1
 271.666992188 583.333007812 l 1
 355 500 l 1
 355 83.3330078125 l 1
 271.666992188 0 l 1
 105 0 l 1
438.333007812 83.3330078125 m 1
 521.666992188 83.3330078125 l 1
 438.333007812 0 l 1
 438.333007812 83.3330078125 l 1
105 666.666992188 m 1
 188.333007812 750 l 1
 521.666992188 750 l 1
 438.333007812 666.666992188 l 1
 105 666.666992188 l 1
EndSplineSet
EndChar

StartChar: D
Encoding: 68 68 77
Width: 587
VWidth: 0
Flags: HW
LayerCount: 2
Fore
SplineSet
83 0 m 1
 83 666.666992188 l 1
 166.333007812 750 l 1
 416.333007812 750 l 1
 499.666992188 666.666992188 l 1
 416.333007812 583.333007812 l 1
 416.333007812 666.666992188 l 1
 166.333007812 666.666992188 l 1
 166.333007812 83.3330078125 l 1
 83 0 l 1
416.333007812 500 m 1
 499.666992188 416.666992188 l 1
 499.666992188 83.3330078125 l 1
 416.333007812 0 l 1
 333 0 l 1
 249.666992188 83.3330078125 l 1
 416.333007812 83.3330078125 l 1
 416.333007812 500 l 1
EndSplineSet
EndChar

StartChar: G
Encoding: 71 71 78
Width: 624
VWidth: 0
Flags: HW
LayerCount: 2
Fore
SplineSet
179.333007812 333.333007812 m 1
 96 416.666992188 l 1
 96 666.666992188 l 1
 179.333007812 750 l 1
 429.333007812 750 l 1
 512.666992188 666.666992188 l 1
 179.333007812 666.666992188 l 1
 179.333007812 333.333007812 l 1
346 333.333007812 m 1
 429.333007812 416.666992188 l 1
 512.666992188 333.333007812 l 1
 512.666992188 83.3330078125 l 1
 429.333007812 0 l 1
 262.666992188 0 l 1
 346 83.3330078125 l 1
 429.333007812 83.3330078125 l 1
 429.333007812 333.333007812 l 1
 346 333.333007812 l 1
96 250 m 1
 179.333007812 250 l 1
 179.333007812 0 l 1
 96 83.3330078125 l 1
 96 250 l 1
EndSplineSet
EndChar

StartChar: logicalnot
Encoding: 172 172 79
Width: 618
VWidth: 0
Flags: HW
LayerCount: 2
Fore
SplineSet
98 250 m 1
 181.333007812 333.333007812 l 1
 431.333007812 333.333007812 l 1
 514.666992188 250 l 1
 514.666992188 166.666992188 l 1
 431.333007812 83.3330078125 l 1
 431.333007812 250 l 1
 98 250 l 1
EndSplineSet
EndChar

StartChar: mu
Encoding: 181 181 80
Width: 521
VWidth: 0
Flags: HW
LayerCount: 2
Fore
SplineSet
86 -166.666992188 m 1
 86 416.666992188 l 1
 169.333007812 333.333007812 l 1
 169.333007812 -83.3330078125 l 1
 86 -166.666992188 l 1
252.666992188 83.3330078125 m 1
 336 83.3330078125 l 1
 419.333007812 0 l 1
 336 -83.3330078125 l 1
 336 0 l 1
 252.666992188 0 l 1
 252.666992188 83.3330078125 l 1
336 166.666992188 m 1
 336 333.333007812 l 1
 419.333007812 416.666992188 l 1
 419.333007812 166.666992188 l 1
 336 166.666992188 l 1
EndSplineSet
EndChar

StartChar: copyright
Encoding: 169 169 81
Width: 768
VWidth: 0
Flags: HW
LayerCount: 2
Fore
SplineSet
169.333007812 750 m 1
 336 750 l 1
 419.333007812 666.666992188 l 1
 169.333007812 666.666992188 l 1
 169.333007812 83.3330078125 l 1
 252.666992188 83.3330078125 l 1
 169.333007812 0 l 1
 86 83.3330078125 l 1
 86 666.666992188 l 1
 169.333007812 750 l 1
502.666992188 666.666992188 m 1
 586 750 l 1
 669.333007812 666.666992188 l 1
 669.333007812 83.3330078125 l 1
 586 0 l 1
 419.333007812 0 l 1
 336 83.3330078125 l 1
 586 83.3330078125 l 1
 586 666.666992188 l 1
 502.666992188 666.666992188 l 1
502.666992188 500 m 1
 336 500 l 1
 336 250 l 1
 502.666992188 250 l 1
 419.333007812 166.666992188 l 1
 336 166.666992188 l 1
 252.666992188 250 l 1
 252.666992188 500 l 1
 336 583.333007812 l 1
 419.333007812 583.333007812 l 1
 502.666992188 500 l 1
EndSplineSet
EndChar

StartChar: asciitilde
Encoding: 126 126 82
Width: 612
VWidth: 0
Flags: HW
LayerCount: 2
Fore
SplineSet
173.333007812 250 m 1
 90 333.333007812 l 1
 173.333007812 416.666992188 l 1
 423.333007812 416.666992188 l 1
 423.333007812 500 l 1
 506.666992188 416.666992188 l 1
 423.333007812 333.333007812 l 1
 340 333.333007812 l 1
 256.666992188 333.333007812 l 1
 173.333007812 333.333007812 l 1
 173.333007812 250 l 1
EndSplineSet
EndChar

StartChar: egrave
Encoding: 232 232 83
Width: 514
VWidth: 0
Flags: HW
LayerCount: 2
Fore
SplineSet
169.333007812 0 m 1
 86 83.3330078125 l 1
 86 333.333007812 l 1
 169.333007812 416.666992188 l 1
 169.333007812 0 l 1
252.666992188 416.666992188 m 1
 336 416.666992188 l 1
 419.333007812 333.333007812 l 1
 419.333007812 250 l 1
 336 166.666992188 l 1
 252.666992188 166.666992188 l 1
 252.666992188 250 l 1
 336 250 l 1
 336 333.333007812 l 1
 252.666992188 333.333007812 l 1
 252.666992188 416.666992188 l 1
252.666992188 83.3330078125 m 1
 419.333007812 83.3330078125 l 1
 336 0 l 1
 252.666992188 0 l 1
 252.666992188 83.3330078125 l 1
252.666992188 666.666992188 m 1
 336 666.666992188 l 1
 336 583.333007812 l 1
 252.666992188 500 l 1
 169.333007812 583.333007812 l 1
 252.666992188 583.333007812 l 1
 252.666992188 666.666992188 l 1
EndSplineSet
EndChar

StartChar: eacute
Encoding: 233 233 84
Width: 518
VWidth: 0
Flags: HW
LayerCount: 2
Fore
SplineSet
173.333007812 0 m 1
 90 83.3330078125 l 1
 90 333.333007812 l 1
 173.333007812 416.666992188 l 1
 173.333007812 0 l 1
256.666992188 416.666992188 m 1
 340 416.666992188 l 1
 423.333007812 333.333007812 l 1
 423.333007812 250 l 1
 340 166.666992188 l 1
 256.666992188 166.666992188 l 1
 256.666992188 250 l 1
 340 250 l 1
 340 333.333007812 l 1
 256.666992188 333.333007812 l 1
 256.666992188 416.666992188 l 1
256.666992188 83.3330078125 m 1
 423.333007812 83.3330078125 l 1
 340 0 l 1
 256.666992188 0 l 1
 256.666992188 83.3330078125 l 1
256.666992188 666.666992188 m 1
 256.666992188 583.333007812 l 1
 340 583.333007812 l 1
 256.666992188 500 l 1
 173.333007812 583.333007812 l 1
 173.333007812 666.666992188 l 1
 256.666992188 666.666992188 l 1
EndSplineSet
EndChar

StartChar: edieresis
Encoding: 235 235 85
Width: 532
VWidth: 0
Flags: HW
LayerCount: 2
Fore
SplineSet
175.333007812 0 m 1
 92 83.3330078125 l 1
 92 333.333007812 l 1
 175.333007812 416.666992188 l 1
 175.333007812 0 l 1
258.666992188 416.666992188 m 1
 342 416.666992188 l 1
 425.333007812 333.333007812 l 1
 425.333007812 250 l 1
 342 166.666992188 l 1
 258.666992188 166.666992188 l 1
 258.666992188 250 l 1
 342 250 l 1
 342 333.333007812 l 1
 258.666992188 333.333007812 l 1
 258.666992188 416.666992188 l 1
258.666992188 83.3330078125 m 1
 425.333007812 83.3330078125 l 1
 342 0 l 1
 258.666992188 0 l 1
 258.666992188 83.3330078125 l 1
175.333007812 500 m 1
 92 500 l 1
 92 583.333007812 l 1
 175.333007812 500 l 1
342 500 m 1
 425.333007812 583.333007812 l 1
 425.333007812 500 l 1
 342 500 l 1
EndSplineSet
EndChar
